<svg width="720" height="720" viewBox="0 0 720 720" fill="none" xmlns="http://www.w3.org/2000/svg">
<g clip-path="url(#clip0_352_3162)">
<rect width="720" height="720" rx="178" fill="url(#paint0_linear_352_3162)"/>
<g filter="url(#filter0_d_352_3162)">
<g filter="url(#filter1_d_352_3162)">
<path fill-rule="evenodd" clip-rule="evenodd" d="M358.957 130.735C359.769 130.737 360.581 130.737 361.393 130.734C369.892 130.714 378.496 130.826 386.907 132.184C387.511 132.279 388.115 132.345 388.722 132.406C391.234 132.676 393.733 133.044 396.231 133.416L396.922 133.518C398.264 133.716 399.59 133.952 400.915 134.246C401.677 134.41 402.45 134.537 403.219 134.662C404.631 134.9 406.024 135.189 407.417 135.515C408.396 135.744 409.376 135.949 410.362 136.139C411.844 136.428 413.304 136.786 414.766 137.162C415.217 137.278 415.67 137.389 416.123 137.5C419.436 138.313 422.714 139.238 425.978 140.231C426.368 140.348 426.759 140.464 427.15 140.579C429.11 141.156 431.049 141.79 432.986 142.445L434.061 142.803C435.503 143.278 436.931 143.786 438.355 144.314L440.173 144.985C440.96 145.272 441.749 145.551 442.54 145.828C443.167 146.061 443.768 146.338 444.373 146.622C444.962 146.887 445.564 147.114 446.168 147.342L446.342 147.408C447.316 147.783 448.28 148.185 449.244 148.586L449.298 148.609L450.123 148.949C451.294 149.432 452.45 149.944 453.6 150.475L454.102 150.705C454.815 151.032 455.524 151.362 456.223 151.716C456.656 151.932 457.072 152.12 457.526 152.286C458.368 152.615 459.166 153.016 459.971 153.425C460.787 153.839 461.612 154.229 462.442 154.612C463.312 155.016 464.135 155.448 464.949 155.959C465.499 156.284 466.067 156.565 466.641 156.848C468.311 157.672 469.94 158.555 471.545 159.5C471.987 159.757 472.433 160.004 472.883 160.247C474.845 161.311 476.753 162.454 478.655 163.624C479.052 163.867 479.452 164.106 479.853 164.345C480.704 164.853 481.538 165.387 482.372 165.923L483.794 166.837C484.555 167.336 484.935 167.585 485.32 167.826C485.705 168.067 486.094 168.301 486.873 168.767L487.228 168.998L487.228 169.322L487.51 169.374C487.931 169.5 488.19 169.679 488.543 169.939C489.103 170.344 489.669 170.734 490.248 171.113L490.649 171.375L491.454 171.898L491.827 172.143L492.166 172.362L492.408 172.559L492.408 172.883L492.671 172.913C493.132 173.071 493.459 173.358 493.811 173.667L494.026 173.854L494.512 174.016L494.512 174.34L494.833 174.437C495.468 174.731 495.982 175.145 496.521 175.578L496.667 175.696L497.849 176.628C498.42 177.074 498.999 177.508 499.58 177.941L501.141 179.108L502.039 179.783L502.313 179.986C502.524 180.146 502.728 180.318 502.929 180.491L502.929 180.815H503.415C503.594 180.994 503.773 181.175 503.946 181.361C504.365 181.758 504.839 182.084 505.313 182.411L505.564 182.585C506.024 182.934 506.408 183.318 506.814 183.728C507.282 184.114 507.757 184.488 508.233 184.863L508.594 185.185L508.594 185.509H509.08C509.272 185.689 509.462 185.872 509.642 186.064C509.934 186.364 510.242 186.639 510.557 186.915L510.882 187.2C511.022 187.321 511.102 187.389 511.185 187.452C511.293 187.533 511.407 187.607 511.67 187.775L511.67 188.099L511.933 188.21C512.451 188.496 512.85 188.833 513.288 189.232L513.288 189.555L513.551 189.667C514.397 190.134 515.073 190.832 515.741 191.522L515.973 191.761C516.449 192.243 516.931 192.707 517.446 193.147C518.141 193.743 518.78 194.39 519.419 195.045C519.789 195.421 520.132 195.736 520.572 196.03L520.572 196.354L521.058 196.516L521.058 196.839L521.544 197.001C521.763 197.268 521.978 197.538 522.191 197.811L522.677 198.134L522.677 198.458L523.162 198.62L523.162 198.944L523.648 199.105C523.693 199.152 523.73 199.188 523.761 199.22C523.8 199.261 523.83 199.293 523.86 199.326C523.925 199.398 523.987 199.474 524.122 199.641C524.735 200.369 525.405 201.03 526.09 201.689C526.307 201.901 526.516 202.121 526.723 202.343L526.723 202.666L527.209 202.828C527.311 202.93 527.367 202.985 527.421 203.044C527.486 203.115 527.548 203.189 527.684 203.354C528.06 203.8 528.443 204.235 528.842 204.66L529.107 204.943L529.637 205.502C530.013 205.903 530.27 206.185 530.446 206.713L530.932 206.875C531.236 207.224 531.35 207.355 531.392 207.505C531.417 207.595 531.417 207.692 531.417 207.846L531.696 207.954C532.158 208.224 532.421 208.558 532.745 208.969L532.793 209.03L533.163 209.493L533.84 210.362C534.177 210.769 534.542 211.133 534.915 211.506L534.978 211.569C535.289 211.917 535.589 212.274 535.889 212.631L536.123 212.908C537.008 213.959 537.195 214.181 537.234 214.426C537.245 214.492 537.245 214.559 537.245 214.645L537.73 214.806C537.996 215.119 538.239 215.427 538.479 215.757L538.679 216.024C538.975 216.426 539.19 216.757 539.349 217.234H539.673C539.989 217.616 540.288 218 540.583 218.398L541.152 219.154L541.458 219.562C541.787 220 542.119 220.435 542.452 220.869L543.453 222.174C544.07 222.981 544.662 223.801 545.241 224.636C545.644 225.21 546.074 225.761 546.505 226.314L546.662 226.515C546.924 226.898 547.052 227.142 547.118 227.594H547.442C547.568 227.745 547.637 227.828 547.703 227.914C547.783 228.02 547.859 228.129 548.028 228.372L548.339 228.811C548.455 229.008 548.514 229.108 548.544 229.217C548.575 229.329 548.575 229.451 548.575 229.698H548.899C549.187 230.084 549.455 230.469 549.718 230.872L549.944 231.206C550.29 231.73 550.553 232.152 550.679 232.774H551.003C551.101 232.906 551.157 232.982 551.21 233.06C551.28 233.163 551.345 233.27 551.497 233.519L552.136 234.554L552.418 234.995L552.865 235.687L553.903 237.303L554.435 238.133C554.814 238.742 555.182 239.358 555.55 239.973L555.697 240.22L556.177 241.017C556.973 242.341 557.766 243.666 558.539 245.003C558.744 245.351 558.958 245.689 559.177 246.026C559.613 246.712 559.964 247.441 560.315 248.172L560.417 248.384C560.685 248.922 561 249.422 561.323 249.929C561.64 250.442 561.915 250.974 562.192 251.51C562.596 252.283 563.004 253.053 563.431 253.814C564.18 255.148 564.89 256.471 565.479 257.883C565.823 258.698 566.222 259.473 566.643 260.25C567.132 261.151 567.562 262.049 567.938 263.003C568.185 263.585 568.468 264.145 568.757 264.707C569.459 266.093 570.075 267.51 570.68 268.941L570.984 269.654C571.495 270.852 571.998 272.053 572.495 273.257L572.633 273.588C573.023 274.539 573.384 275.499 573.74 276.462C573.996 277.151 574.264 277.834 574.533 278.517L574.555 278.572C574.98 279.655 575.377 280.746 575.758 281.845C575.969 282.45 576.191 283.048 576.436 283.64C576.742 284.386 576.973 285.148 577.205 285.92C577.411 286.59 577.63 287.255 577.853 287.92L577.978 288.295C578.182 288.904 578.387 289.512 578.597 290.119C579.135 291.687 579.6 293.268 580.04 294.867C580.334 295.935 580.644 296.997 580.969 298.056C581.405 299.491 581.775 300.937 582.129 302.394C582.222 302.774 582.316 303.154 582.411 303.534C582.477 303.794 582.542 304.054 582.608 304.314L582.67 304.564C582.907 305.507 583.142 306.45 583.376 307.394L583.477 307.799C584.124 310.424 584.629 313.082 585.133 315.737L585.36 316.935C585.54 317.873 585.724 318.81 585.915 319.747C586.086 320.593 586.229 321.438 586.355 322.292C586.433 322.818 586.518 323.343 586.604 323.868L586.689 324.389L586.857 325.406C587.032 326.482 587.173 327.56 587.297 328.643C587.396 329.508 587.503 330.371 587.614 331.235C588.05 334.613 588.448 337.989 588.718 341.386L588.749 341.776C589.2 347.503 589.28 353.216 589.266 358.957C589.264 359.769 589.265 360.58 589.267 361.392C589.29 371.089 588.696 380.656 587.423 390.27L587.355 390.784C587.221 391.8 587.081 392.816 586.937 393.831L586.885 394.203C586.348 398.011 585.718 401.817 584.868 405.568C584.653 406.52 584.466 407.476 584.279 408.434L584.256 408.55C584.001 409.846 583.722 411.126 583.39 412.404C583.212 413.092 583.048 413.784 582.884 414.475L582.872 414.524C582.057 417.962 581.142 421.357 580.124 424.741C579.921 425.42 579.721 426.1 579.521 426.781L579.167 427.985L579.064 428.337C578.709 429.544 578.312 430.737 577.913 431.93L577.804 432.254C577.196 434.074 576.574 435.889 575.93 437.697L575.751 438.202L575.171 439.831L574.99 440.341C574.681 441.203 574.35 442.043 573.97 442.876C573.763 443.34 573.593 443.815 573.421 444.293C571.97 448.239 570.341 452.212 568.422 455.952C568.146 456.492 567.897 457.028 567.685 457.596C567.382 458.396 566.98 459.141 566.574 459.891L566.436 460.146C566.024 460.914 565.647 461.689 565.294 462.486C564.569 464.084 563.75 465.63 562.879 467.152C562.375 468.038 561.914 468.941 561.467 469.857C561.186 470.431 560.886 470.981 560.553 471.527L560.097 472.376C559.787 472.95 559.464 473.498 559.096 474.036C558.761 474.526 558.464 475.019 558.185 475.543C557.585 476.667 556.924 477.756 556.263 478.845L555.941 479.377L555.184 480.639C554.859 481.18 554.53 481.718 554.189 482.25L553.903 482.698L553.051 484.023L552.678 484.602L552.348 485.116C552.164 485.405 551.982 485.695 551.802 485.987L551.498 486.479L551.231 486.918L551.002 487.228H550.679L550.62 487.514C550.472 488.033 550.178 488.46 549.877 488.897L549.718 489.13L549.494 489.472C549.305 489.755 549.102 490.03 548.898 490.303H548.574L548.523 490.579C548.392 491.019 548.192 491.338 547.937 491.72L547.68 492.112L547.441 492.407H547.118L547.078 492.675C546.925 493.152 546.669 493.479 546.369 493.864L546.298 493.955L545.893 494.483L545.689 494.748L545.412 495.119C545.247 495.343 545.085 495.57 544.922 495.797C543.595 497.63 542.206 499.421 540.819 501.21L540.29 501.893C540.074 502.177 539.87 502.47 539.672 502.767H539.348L539.232 503.027C538.964 503.527 538.635 503.973 538.296 504.426L538.098 504.698C537.929 504.924 537.749 505.141 537.567 505.357H537.244L537.125 505.627C536.875 506.086 536.568 506.454 536.232 506.854C535.785 507.391 535.349 507.929 534.937 508.493C534.557 509.007 534.141 509.442 533.683 509.889C533.23 510.37 533.004 510.61 532.788 510.859C532.573 511.108 532.369 511.365 531.961 511.879L531.74 512.155H531.417L531.275 512.449C531.201 512.592 531.157 512.678 531.109 512.761C531.039 512.883 530.961 513 530.769 513.288H530.445L530.316 513.579C530.114 513.949 529.91 514.174 529.606 514.462C528.81 515.234 528.093 516.066 527.4 516.93L527.046 517.335H526.722L526.589 517.628C526.401 517.978 526.219 518.197 525.935 518.472L525.662 518.74L525.377 519.014C524.837 519.537 524.312 520.052 523.842 520.639L523.485 521.058H523.161L522.999 521.543H522.676L522.514 522.029C522.247 522.248 521.977 522.464 521.704 522.676L521.381 523.162H521.057L520.895 523.648H520.571L520.409 524.133C520.306 524.235 520.248 524.292 520.189 524.346C520.117 524.41 520.042 524.472 519.876 524.607C519.267 525.121 518.702 525.67 518.143 526.238C517.284 527.107 516.402 527.927 515.442 528.686C514.885 529.138 514.397 529.652 513.904 530.173C513.744 530.322 513.671 530.39 513.585 530.421C513.514 530.446 513.434 530.446 513.287 530.446L513.125 530.932C512.855 531.178 512.573 531.413 512.286 531.64L511.797 532.031L511.345 532.388C510.613 532.979 509.93 533.599 509.301 534.3C509.215 534.375 509.162 534.421 509.101 534.449C509.005 534.493 508.889 534.493 508.593 534.493L508.495 534.766C508.203 535.25 507.794 535.545 507.348 535.867L507.248 535.939C506.56 536.443 505.96 536.963 505.356 537.568C505.05 537.8 504.74 538.026 504.425 538.246C504.119 538.443 503.969 538.539 503.841 538.66C503.717 538.776 503.615 538.914 503.413 539.187H502.928L502.766 539.672C502.398 539.974 502.029 540.255 501.643 540.532L500.555 541.333C499.971 541.768 499.398 542.218 498.824 542.668L498.709 542.758C497.776 543.487 496.838 544.208 495.887 544.913L495.578 545.144C495.09 545.502 494.94 545.612 494.774 545.646C494.7 545.661 494.623 545.661 494.511 545.661L494.511 545.985L493.975 546.279C493.63 546.474 493.376 546.634 493.095 546.916L492.892 547.118H492.407L492.407 547.442C492.041 547.709 491.675 547.957 491.294 548.201L490.624 548.638L490.291 548.856C489.517 549.364 488.742 549.884 488.023 550.468C487.886 550.561 487.809 550.613 487.725 550.642C487.618 550.679 487.498 550.679 487.227 550.679L487.227 551.003C486.834 551.27 486.44 551.518 486.033 551.762C485.258 552.234 484.494 552.708 483.757 553.239C483.159 553.667 482.546 554.026 481.898 554.373C481.487 554.607 481.116 554.879 480.736 555.161C480.421 555.379 480.101 555.562 479.764 555.744C478.958 556.187 478.17 556.658 477.383 557.134C475.649 558.178 473.905 559.199 472.138 560.186C471.548 560.516 470.967 560.855 470.393 561.211C469.634 561.672 468.844 562.064 468.048 562.456C467.176 562.887 466.315 563.335 465.456 563.791C464.196 564.457 462.927 565.103 461.65 565.735C461.083 566.016 460.518 566.3 459.952 566.583L459.043 567.037L458.399 567.362C457.855 567.637 457.319 567.9 456.745 568.11C455.92 568.432 455.126 568.81 454.327 569.193C453.059 569.8 451.781 570.369 450.483 570.913L449.95 571.143C449.24 571.448 448.521 571.731 447.802 572.015C446.835 572.4 445.873 572.792 444.919 573.209C443.993 573.611 443.054 573.956 442.101 574.289C441.669 574.442 441.245 574.604 440.822 574.777C438.842 575.581 436.824 576.29 434.793 576.954L434.163 577.162L432.381 577.755C431.664 577.994 430.948 578.234 430.234 578.481C428.493 579.079 426.742 579.591 424.961 580.06C423.979 580.319 423.003 580.588 422.035 580.898C420.111 581.512 418.178 582.029 416.212 582.489C415.451 582.667 414.691 582.852 413.932 583.04C411.382 583.669 408.833 584.251 406.253 584.746C405.563 584.881 404.876 585.029 404.189 585.177C402.92 585.448 401.646 585.682 400.367 585.9C399.933 585.974 399.5 586.051 399.066 586.129C397.553 586.398 396.043 586.656 394.518 586.846C393.849 586.932 393.183 587.033 392.517 587.135L392.26 587.174C390.531 587.436 388.807 587.67 387.067 587.84C386.449 587.9 385.835 587.978 385.22 588.06C377.194 589.087 369.125 589.286 361.044 589.266C360.232 589.264 359.42 589.265 358.608 589.267C348.911 589.291 339.344 588.697 329.731 587.423L329.216 587.355C328.2 587.221 327.185 587.082 326.17 586.937L325.763 586.88C323.622 586.575 321.497 586.202 319.371 585.804L318.747 585.689L316.26 585.222C313.12 584.635 310.013 583.963 306.907 583.214L305.772 582.944C302.354 582.129 301.534 581.933 300.723 581.707C300.467 581.636 300.212 581.562 299.876 581.464L298.989 581.208L296.588 580.52C295.846 580.308 295.103 580.097 294.359 579.889C292.92 579.486 291.509 579.061 290.107 578.542C289.6 578.363 289.094 578.216 288.576 578.075C286.08 577.381 283.627 576.486 281.233 575.499C280.453 575.191 279.66 574.934 278.861 574.68C277.691 574.281 276.552 573.799 275.414 573.317L274.726 573.027C273.521 572.522 272.314 572.033 271.092 571.572C270.487 571.335 269.9 571.064 269.311 570.79C268.857 570.584 268.399 570.393 267.938 570.204C267.111 569.863 266.3 569.493 265.491 569.11C264.9 568.832 264.307 568.56 263.709 568.296C262.355 567.696 261.023 567.084 259.724 566.371C258.995 565.974 258.252 565.615 257.498 565.268C256.101 564.621 254.743 563.909 253.386 563.184C252.902 562.926 252.416 562.67 251.931 562.414L251.902 562.399L249.795 561.28C248.475 560.569 247.179 559.813 245.884 559.056C245.722 558.962 245.56 558.867 245.398 558.773L245.019 558.552C243.749 557.812 242.49 557.063 241.256 556.266C240.889 556.035 240.518 555.823 240.138 555.616C239.461 555.247 238.814 554.841 238.166 554.423C237.759 554.162 237.35 553.904 236.94 553.648C235.218 552.573 233.534 551.455 231.866 550.3C231.472 550.028 231.076 549.758 230.681 549.488C229.408 548.622 228.141 547.75 226.893 546.848C226.249 546.384 225.592 545.946 224.918 545.525L224.679 545.338L224.679 545.014H224.194L224.194 544.69L223.873 544.593C223.237 544.298 222.722 543.884 222.183 543.45L222.039 543.335L220.866 542.408C220.141 541.844 219.399 541.301 218.654 540.762C218.391 540.568 218.135 540.364 217.881 540.158L217.881 539.834L217.617 539.717C216.428 539.077 215.347 538.126 214.312 537.216L213.695 536.677C213.461 536.473 213.344 536.371 213.22 536.28C213.096 536.19 212.964 536.109 212.701 535.949L212.701 535.626L212.431 535.507C211.805 535.167 211.259 534.694 210.717 534.225C210.57 534.098 210.421 533.969 210.273 533.845L209.905 533.545C209.644 533.329 209.391 533.102 209.14 532.874L209.14 532.55L208.862 532.428C208.435 532.195 208.122 531.919 207.764 531.589L207.339 531.2L206.874 530.77L206.091 530.047L205.583 529.577C205.216 529.238 204.863 528.943 204.446 528.666L204.446 528.342L203.961 528.18L203.961 527.856L203.698 527.745C202.851 527.277 202.284 526.665 201.694 525.914L201.209 525.59L201.209 525.266L200.921 525.138C200.543 524.933 200.295 524.717 199.993 524.413L199.666 524.088L199.317 523.736L198.954 523.373L195.954 520.362C195.403 519.806 194.895 519.245 194.41 518.63C194.174 518.434 193.937 518.239 193.697 518.046C193.237 517.644 192.822 517.186 192.468 516.687L192.468 516.364L191.983 516.202L191.983 515.878L191.497 515.716C191.389 515.609 191.329 515.55 191.273 515.489C191.205 515.416 191.141 515.339 191.001 515.17C190.526 514.61 190.04 514.063 189.544 513.521C188.044 511.872 187.815 511.62 187.78 511.344C187.774 511.294 187.774 511.244 187.774 511.184L187.288 511.022C186.984 510.673 186.87 510.542 186.828 510.392C186.803 510.302 186.803 510.205 186.803 510.051L186.317 509.889C185.733 509.251 185.571 509.073 185.525 508.869C185.508 508.791 185.508 508.708 185.508 508.594H185.184C184.967 508.272 184.751 507.948 184.537 507.623L184.172 507.259C183.535 506.621 182.956 505.929 182.432 505.195L182.432 504.871H182.109C181.972 504.745 181.906 504.684 181.843 504.621C181.785 504.562 181.73 504.502 181.623 504.386C180.602 504.744 179.658 505.206 178.709 505.721C177.751 506.24 176.785 506.713 175.786 507.147C174.876 507.543 173.979 507.953 173.095 508.402C171.649 509.136 170.186 509.832 168.722 510.529L168.513 510.628L166.124 511.771C165.111 512.256 164.097 512.739 163.081 513.217C161.919 513.765 160.765 514.326 159.617 514.904C158.404 515.514 157.176 516.091 155.948 516.668L155.563 516.849C154.52 517.339 153.992 517.587 153.472 517.837C152.951 518.087 152.432 518.342 151.394 518.852C150.126 519.492 148.844 520.102 147.562 520.712L147.005 520.978C146.253 521.337 145.501 521.698 144.75 522.059L144.434 522.211C142.487 523.146 140.536 524.072 138.582 524.993C137.255 525.618 135.935 526.255 134.625 526.916C133.969 527.244 133.306 527.556 132.643 527.868L132.517 527.927C131.56 528.377 130.608 528.836 129.664 529.313C128.229 530.037 126.776 530.72 125.322 531.404L123.315 532.35C122.563 532.707 121.817 533.074 121.075 533.451C120.232 533.876 119.38 534.266 118.515 534.644C117.466 535.104 116.436 535.592 115.415 536.111C114.64 536.504 113.859 536.878 113.073 537.244C112.182 537.66 111.299 538.086 110.422 538.529C109.341 539.075 108.249 539.596 107.153 540.111C106.392 540.47 105.638 540.839 104.888 541.22C104.05 541.644 103.2 542.029 102.339 542.404C101.36 542.83 100.413 543.291 99.4757 543.8C98.4262 544.37 97.36 544.87 96.2651 545.346C95.128 545.842 94.0222 546.392 92.9171 546.955C91.4612 547.696 90.0016 548.423 88.515 549.101C87.7185 549.467 86.9285 549.847 86.1387 550.226L85.6156 550.477C84.5956 550.966 83.5738 551.451 82.5505 551.934C81.4874 552.435 80.4348 552.954 79.3853 553.484C78.7096 553.818 78.0264 554.135 77.3418 554.451C76.4586 554.86 75.5895 555.296 74.7204 555.734C74.0654 556.064 73.4063 556.372 72.7336 556.663C72.2428 556.885 71.7627 557.128 71.2823 557.371L71.0656 557.48C69.828 558.103 68.5755 558.694 67.3231 559.286L66.6977 559.582L65.9042 559.958C64.8786 560.444 63.853 560.93 62.8262 561.414C61.4995 562.039 60.1807 562.675 58.8712 563.336C58.1574 563.693 57.435 564.032 56.7125 564.371L56.3665 564.533C55.5309 564.927 54.7035 565.335 53.8799 565.753C53.0417 566.179 52.1955 566.569 51.3305 566.937C50.4175 567.326 49.5419 567.758 48.6698 568.232C47.6134 568.805 46.5408 569.309 45.4386 569.788C44.5219 570.188 43.6279 570.622 42.7364 571.075C41.85 571.524 40.9535 571.949 40.0518 572.366C39.4586 572.643 38.8724 572.928 38.292 573.23L37.936 573.414C37.8005 573.485 37.6652 573.556 37.5303 573.628C37.4422 573.675 37.3542 573.722 37.2664 573.77C36.8669 573.977 36.5227 574.144 36.0695 574.173C35.6451 573.901 35.4582 573.484 35.2607 573.044L35.1843 572.875L35.0174 572.527C34.8381 572.152 34.6621 571.775 34.4863 571.398L33.5735 569.468C33.1825 568.638 32.7775 567.816 32.3618 566.998C31.8679 566.024 31.4174 565.038 30.9953 564.032C30.7733 563.508 30.5326 563.011 30.2449 562.522C30.0598 562.196 29.9924 562.077 29.968 561.951C29.954 561.879 29.954 561.804 29.954 561.686L32.1737 560.577L32.9372 560.193C33.863 559.728 34.7943 559.277 35.7307 558.833L37.085 558.19L39.9912 556.805C40.833 556.403 41.6695 555.991 42.5033 555.573C43.1755 555.238 43.8537 554.916 44.5322 554.594L44.978 554.382C45.7811 554.001 46.5853 553.622 47.3906 553.245C48.3769 552.784 49.3567 552.313 50.329 551.823C51.7799 551.091 53.2493 550.4 54.7196 549.708L56.6982 548.775C57.4506 548.419 58.1961 548.052 58.9383 547.675C59.7807 547.249 60.6336 546.859 61.4978 546.481C62.8781 545.876 64.2225 545.213 65.5647 544.528C67.3839 543.607 69.2212 542.726 71.0621 541.849L72.9863 540.929C74.1613 540.366 75.3368 539.805 76.5151 539.25C77.5037 538.783 78.4889 538.313 79.465 537.821C81.2122 536.94 82.9838 536.109 84.756 535.28C85.8453 534.77 86.9299 534.255 88.0035 533.714C90.3462 532.532 92.723 531.418 95.099 530.305L96.2079 529.785C97.6765 529.095 99.1382 528.395 100.587 527.663C101.236 527.337 101.89 527.025 102.551 526.723C103.308 526.378 104.055 526.016 104.797 525.641C106.351 524.857 107.923 524.11 109.495 523.362L119.407 518.629C120.27 518.216 121.134 517.806 122 517.398C122.988 516.931 123.973 516.461 124.95 515.969C126.523 515.176 128.117 514.426 129.711 513.675L130.324 513.386C131.451 512.854 132.577 512.322 133.69 511.761C135.438 510.88 137.209 510.048 138.981 509.219C140.223 508.638 141.456 508.043 142.68 507.426C143.394 507.068 144.114 506.73 144.843 506.404C146.543 505.63 148.229 504.822 149.897 503.981C151.457 503.195 153.037 502.451 154.617 501.707L155.252 501.408C156.569 500.787 157.879 500.156 159.179 499.499C159.902 499.138 160.634 498.794 161.365 498.451L161.709 498.289C162.475 497.928 163.235 497.557 163.99 497.172C164.832 496.747 165.685 496.357 166.549 495.979C167.822 495.421 169.064 494.817 170.302 494.186C170.786 493.94 171.272 493.698 171.758 493.455L171.911 493.379L172.882 492.893L172.234 491.919C171.99 491.554 171.744 491.19 171.498 490.827L171.061 490.182L170.847 489.869C170.483 489.328 170.182 488.821 169.969 488.199H169.645C169.473 487.935 169.314 487.664 169.159 487.39L168.893 486.969L168.451 486.277L168.257 485.973C167.921 485.452 167.578 484.942 167.207 484.446C167.041 484.204 166.963 484.091 166.926 483.966C166.893 483.854 166.893 483.733 166.893 483.505H166.57L166.32 483.06L165.983 482.463L165.82 482.172C165.503 481.613 165.169 481.074 164.809 480.541C164.265 479.735 163.772 478.902 163.282 478.062C162.9 477.41 162.71 477.085 162.517 476.76C162.427 476.609 162.337 476.458 162.227 476.275C162.1 476.065 161.947 475.812 161.739 475.466L161.532 475.129L161.154 474.518C160.882 474.074 160.742 473.839 160.742 473.307C159.757 473.66 158.837 474.093 157.92 474.592C157.106 475.034 156.291 475.446 155.443 475.821C154.706 476.153 153.976 476.5 153.246 476.848L152.795 477.063C151.976 477.454 151.162 477.853 150.353 478.264C149.514 478.689 148.664 479.073 147.803 479.448C146.766 479.9 145.766 480.393 144.774 480.936C143.955 481.383 143.117 481.777 142.267 482.161C141.881 482.337 141.503 482.521 141.126 482.716C140.689 482.939 140.25 483.12 139.791 483.292C139.025 483.59 138.316 483.964 137.595 484.355C136.519 484.937 135.427 485.453 134.304 485.941C133.387 486.341 132.493 486.775 131.601 487.228C130.827 487.62 130.046 487.994 129.259 488.361C128.369 488.776 127.486 489.203 126.609 489.646C125.528 490.192 124.436 490.713 123.34 491.228C122.579 491.586 121.825 491.955 121.075 492.337C120.233 492.762 119.38 493.152 118.515 493.53C117.466 493.99 116.436 494.478 115.415 494.997C114.641 495.39 113.859 495.764 113.073 496.13C112.182 496.546 111.299 496.972 110.422 497.415C109.349 497.957 108.265 498.474 107.176 498.986C106.346 499.377 105.524 499.782 104.706 500.197C103.868 500.623 103.022 501.013 102.157 501.381C101.244 501.77 100.368 502.203 99.4961 502.676C98.4398 503.249 97.3671 503.753 96.2653 504.232C94.9186 504.82 93.6134 505.484 92.3055 506.153C90.7016 506.972 89.0748 507.736 87.4397 508.49C86.2059 509.059 84.9797 509.638 83.7685 510.254C82.908 510.691 82.0361 511.1 81.1615 511.507C80.3761 511.875 79.6007 512.258 78.8277 512.651C77.9827 513.08 77.1301 513.474 76.2581 513.845C75.3451 514.233 74.4695 514.666 73.5974 515.14C72.541 515.713 71.4684 516.217 70.3662 516.696C69.4495 517.096 68.5555 517.529 67.664 517.982C66.776 518.432 65.8775 518.857 64.9752 519.277C64.1897 519.644 63.4141 520.028 62.6411 520.42C61.7961 520.849 60.9434 521.244 60.0714 521.614C59.1584 522.003 58.2828 522.436 57.4108 522.909C56.3543 523.482 55.2817 523.986 54.1796 524.465C53.2629 524.865 52.3688 525.299 51.4773 525.752C50.7032 526.144 49.922 526.518 49.1353 526.885C48.2449 527.3 47.3618 527.727 46.4848 528.17C45.4036 528.716 44.3118 529.237 43.2156 529.752C42.4546 530.111 41.7008 530.479 40.9509 530.861C40.1085 531.286 39.2556 531.676 38.3914 532.055C37.1183 532.613 35.875 533.217 34.6366 533.848C31.1835 535.607 27.6765 537.259 24.1704 538.909L23.819 539.075C22.6478 539.627 21.4789 540.181 20.323 540.765C19.5307 541.165 18.7314 541.54 17.9216 541.903C17.4893 542.101 17.065 542.311 16.6406 542.525C15.3208 543.191 13.9856 543.825 12.6504 544.46L11.825 544.852L10.9325 545.278C8.71155 546.336 8.70872 546.338 7.61273 546.854C6.2929 547.477 4.97753 548.111 3.6748 548.768C2.96065 549.125 2.23793 549.464 1.51518 549.803L1.17009 549.965C0.334513 550.359 -0.492886 550.767 -1.31652 551.185C-2.15475 551.611 -3.00091 552.001 -3.86592 552.369C-4.77893 552.758 -5.65455 553.19 -6.5266 553.664C-7.58305 554.237 -8.65566 554.741 -9.75781 555.22C-10.6745 555.62 -11.5685 556.054 -12.4601 556.507C-13.2342 556.899 -14.0153 557.273 -14.802 557.64C-16.3187 558.347 -17.8145 559.095 -19.3046 559.856C-20.0173 560.219 -20.72 560.566 -21.4689 560.847C-22.2425 561.143 -22.9571 561.526 -23.6845 561.919C-24.6149 562.422 -25.5419 562.865 -26.5254 563.257C-27.3388 563.6 -28.1244 564.002 -28.9101 564.403L-29.2794 564.592C-30.7918 565.362 -32.3108 566.114 -33.8481 566.833C-34.8197 567.287 -35.7879 567.748 -36.7552 568.212L-41.0242 570.255C-41.7818 570.618 -42.5399 570.979 -43.2988 571.339C-44.5628 571.938 -45.8252 572.539 -47.0742 573.169C-48.5158 573.896 -49.9734 574.589 -51.4314 575.283L-52.9982 576.029C-54.1073 576.558 -55.2164 577.087 -56.3278 577.611C-57.633 578.226 -58.9312 578.851 -60.2196 579.501C-61.0414 579.912 -61.8717 580.306 -62.702 580.699L-63.1791 580.926C-64.2494 581.436 -65.3126 581.957 -66.3631 582.507C-66.8977 582.781 -67.3789 582.969 -67.9752 583.053C-68.4622 582.365 -68.8185 581.678 -69.1387 580.898C-69.5971 579.814 -70.1148 578.775 -70.6809 577.743C-71.0932 576.987 -71.4553 576.216 -71.8074 575.43C-72.0268 574.949 -72.2566 574.474 -72.4904 574L-72.7259 573.519L-73.209 572.544L-73.4414 572.067L-73.6518 571.642C-73.8128 571.208 -73.8317 570.886 -73.8024 570.427C-72.415 569.716 -71.019 569.036 -69.5939 568.404C-68.501 567.918 -67.4246 567.411 -66.3585 566.869C-65.5217 566.445 -64.6764 566.041 -63.8274 565.642C-62.7402 565.131 -61.6638 564.603 -60.5913 564.062C-60.015 563.776 -59.4339 563.504 -58.85 563.234C-58.0263 562.854 -57.2115 562.459 -56.4017 562.05C-54.8632 561.274 -53.3072 560.535 -51.751 559.795L-49.1842 558.573L-41.8117 555.049C-40.9487 554.636 -40.0847 554.226 -39.2194 553.818C-38.2309 553.351 -37.2456 552.881 -36.2696 552.389C-34.6959 551.596 -33.1013 550.845 -31.5069 550.094L-30.8951 549.806C-29.7745 549.278 -28.6554 548.749 -27.549 548.191C-26.2827 547.552 -25.0026 546.943 -23.7222 546.333L-23.1595 546.065C-22.3018 545.656 -21.4454 545.244 -20.5887 544.832C-18.6419 543.897 -16.6909 542.971 -14.7369 542.05C-13.5998 541.514 -12.4647 540.977 -11.3421 540.411C-9.59494 539.53 -7.82332 538.699 -6.05106 537.87C-4.84058 537.304 -3.63856 536.725 -2.44562 536.123C-1.46965 535.632 -0.482681 535.166 0.505995 534.701C1.26702 534.343 2.02084 533.974 2.77067 533.592C3.61307 533.167 4.46598 532.777 5.33018 532.399C6.37998 531.939 7.40914 531.451 8.43086 530.932C9.20501 530.539 9.9862 530.165 10.773 529.799C11.6634 529.383 12.5465 528.957 13.4235 528.514C14.5047 527.968 15.5965 527.447 16.6927 526.932C17.4537 526.573 18.2075 526.204 18.9573 525.823C19.7997 525.397 20.6527 525.007 21.5169 524.629C22.8971 524.024 24.2415 523.361 25.5837 522.676C26.8989 522.011 28.2202 521.365 29.5561 520.743C30.347 520.373 31.1282 519.986 31.9067 519.591C32.7517 519.162 33.6043 518.768 34.4763 518.397C35.5253 517.951 36.5305 517.443 37.5299 516.895C38.2891 516.481 39.0628 516.117 39.8517 515.763C40.5503 515.447 41.2408 515.115 41.9314 514.782L42.1144 514.694C43.235 514.156 44.357 513.622 45.4833 513.096C46.4574 512.64 47.4206 512.166 48.3806 511.681C49.3566 511.19 50.3435 510.724 51.3322 510.259C52.0932 509.901 52.847 509.532 53.5968 509.151C54.4392 508.725 55.2921 508.335 56.1563 507.957C57.2054 507.497 58.2339 507.01 59.2549 506.491C60.0499 506.088 60.8522 505.703 61.6598 505.326C62.3654 504.997 63.0694 504.667 63.7641 504.315C64.5137 503.935 65.2733 503.577 66.0335 503.219L66.0909 503.192C66.9931 502.766 67.8915 502.336 68.7819 501.887C70.013 501.266 71.2582 500.676 72.5038 500.086L72.876 499.909C73.6792 499.528 74.4812 499.143 75.2833 498.759L75.6648 498.577C76.4283 498.211 77.1922 497.847 77.9571 497.484C79.34 496.829 80.7179 496.166 82.0843 495.477C83.1966 494.918 84.3226 494.388 85.449 493.858L85.7143 493.733C86.3714 493.423 87.0272 493.11 87.683 492.797L87.8215 492.731C88.6603 492.331 89.4993 491.932 90.3399 491.536C91.4616 491.007 92.5818 490.477 93.6892 489.919C94.6444 489.437 95.607 488.973 96.5724 488.513C97.9563 487.853 99.3391 487.19 100.72 486.524L101.6 486.1C102.746 485.548 103.885 484.984 105.019 484.409C105.565 484.143 106.119 483.903 106.679 483.667C107.164 483.446 107.645 483.217 108.126 482.989L108.532 482.796C109.505 482.333 110.47 481.855 111.432 481.37C112.249 480.959 113.077 480.575 113.91 480.195C114.513 479.913 115.108 479.617 115.703 479.316C116.934 478.696 118.178 478.107 119.426 477.524L121.358 476.615L121.752 476.429C122.51 476.07 123.261 475.7 124.009 475.32C124.851 474.895 125.704 474.505 126.568 474.127C127.841 473.569 129.085 472.964 130.323 472.333C133.777 470.574 137.284 468.922 140.79 467.271L141.141 467.106C142.271 466.573 143.4 466.039 144.515 465.477C145.64 464.91 146.775 464.367 147.912 463.826C148.788 463.409 149.662 462.989 150.534 462.563L151.092 462.292L152.166 461.767L152.657 461.53L153.091 461.317C153.257 461.25 153.348 461.212 153.443 461.192C153.557 461.167 153.678 461.167 153.944 461.167C153.627 460.325 153.285 459.509 152.872 458.709C152.376 457.739 151.946 456.745 151.516 455.745C151.207 455.023 151.052 454.663 150.889 454.306C150.726 453.95 150.554 453.597 150.211 452.892C149.231 450.99 148.431 448.982 147.681 446.98C147.416 446.3 147.13 445.629 146.844 444.957L146.832 444.93C146.316 443.719 145.839 442.498 145.386 441.262C145.294 440.999 145.253 440.884 145.204 440.773C145.165 440.685 145.121 440.6 145.041 440.448C143.674 441.021 142.339 441.623 141.035 442.33C140.125 442.823 139.218 443.254 138.255 443.638C137.377 444.008 136.529 444.444 135.682 444.879L135.168 445.142C133.434 446.026 132.919 446.289 132.39 446.517C132.166 446.613 131.939 446.703 131.617 446.832C130.819 447.152 130.074 447.536 129.32 447.945C128.25 448.525 127.164 449.036 126.048 449.521C125.14 449.918 124.253 450.347 123.37 450.796C122.527 451.223 121.677 451.63 120.822 452.032C119.721 452.55 118.63 453.085 117.543 453.633C117.089 453.858 116.631 454.071 116.169 454.278C115.457 454.596 114.76 454.938 114.064 455.289C112.619 456.018 111.158 456.713 109.694 457.405L106.192 459.064L105.481 459.396C104.262 459.966 103.051 460.549 101.85 461.155C100.874 461.646 99.8866 462.113 98.8979 462.577C98.1369 462.936 97.3831 463.305 96.6332 463.686C95.7946 464.11 94.9451 464.495 94.0838 464.87C93.1055 465.296 92.1584 465.757 91.2208 466.266C90.1712 466.836 89.105 467.336 88.0097 467.812C87.0931 468.212 86.1991 468.646 85.3076 469.099C84.5334 469.491 83.7523 469.865 82.9656 470.232C81.449 470.939 79.9532 471.687 78.463 472.449C77.7504 472.811 77.0476 473.158 76.2987 473.439C75.5251 473.735 74.8106 474.118 74.0832 474.511C73.1528 475.014 72.2257 475.457 71.2423 475.849C70.2975 476.248 69.3841 476.719 68.4723 477.19L67.8595 477.505C66.257 478.323 64.6316 479.086 62.9979 479.84C61.7642 480.409 60.5379 480.988 59.3267 481.603C58.4669 482.04 57.5954 482.449 56.7215 482.856C55.9194 483.232 55.1259 483.622 54.3354 484.021C53.5121 484.436 52.6848 484.833 51.8429 485.209C49.5495 486.253 47.2735 487.349 45.042 488.52L44.7324 488.68L43.8843 489.124C43.3985 489.328 43.0987 489.379 42.5799 489.332C41.8294 487.952 41.1051 486.59 40.5256 485.128C40.2704 484.538 39.9733 483.978 39.6663 483.414C39.2248 482.602 38.8129 481.789 38.4409 480.943C38.2455 480.509 38.0432 480.081 37.8364 479.653L37.6344 479.233L37.2295 478.399L37.0429 478.011L36.8736 477.663C36.8241 477.537 36.7949 477.462 36.7777 477.384C36.7527 477.273 36.7527 477.155 36.7527 476.868L37.2977 476.613C38.043 476.266 38.4287 476.086 38.8013 475.908C39.1741 475.729 39.545 475.547 40.2836 475.184C41.0341 474.803 41.8046 474.44 42.5657 474.082L42.6204 474.056C43.5295 473.627 44.4344 473.193 45.3316 472.741C46.3469 472.228 47.3732 471.742 48.4023 471.258C49.1687 470.896 49.9281 470.525 50.6833 470.141C51.5258 469.715 52.3787 469.325 53.2429 468.947C54.2846 468.491 55.3062 468.007 56.3201 467.492C57.1624 467.065 58.0131 466.658 58.8677 466.256C59.9463 465.749 61.0144 465.225 62.0785 464.688C62.8522 464.305 63.6448 463.935 64.427 463.569C65.0194 463.292 65.6088 463.011 66.1922 462.715C66.9441 462.334 67.7059 461.975 68.4684 461.616L68.519 461.592C69.4213 461.167 70.3196 460.737 71.2101 460.287C72.9572 459.406 74.7288 458.575 76.5011 457.746C77.7431 457.165 78.9757 456.57 80.2001 455.953C80.914 455.594 81.6343 455.256 82.3637 454.93C84.1254 454.128 85.871 453.288 87.5991 452.416C89.0165 451.701 90.4523 451.026 91.8889 450.351L91.9493 450.322C93.5413 449.573 95.1282 448.818 96.699 448.026C97.4225 447.664 98.1546 447.32 98.8867 446.976L99.2285 446.816C99.9949 446.454 100.754 446.083 101.509 445.699C102.352 445.273 103.205 444.883 104.069 444.505C105.111 444.049 106.133 443.565 107.147 443.05C107.982 442.626 108.826 442.222 109.674 441.824C110.738 441.324 111.793 440.808 112.843 440.278C113.729 439.833 114.625 439.41 115.524 438.992C116.309 438.625 117.085 438.241 117.858 437.848C118.703 437.42 119.556 437.025 120.428 436.655C121.341 436.266 122.216 435.833 123.088 435.36C124.145 434.786 125.217 434.282 126.32 433.804C127.236 433.404 128.13 432.97 129.022 432.517C129.796 432.124 130.577 431.75 131.364 431.384C132.88 430.676 134.376 429.929 135.866 429.167C136.736 428.725 137.603 428.325 138.514 427.976C138.894 427.821 139.254 427.646 139.619 427.459C139.99 427.273 140.118 427.209 140.253 427.187C140.324 427.175 140.397 427.175 140.509 427.175C140.239 426.01 139.918 424.868 139.568 423.725C139.059 422.056 138.62 420.371 138.187 418.68C138.052 418.159 137.91 417.639 137.768 417.119C136.884 413.808 136.135 410.465 135.434 407.112C135.343 406.681 135.249 406.251 135.154 405.822C134.721 403.858 134.395 401.878 134.071 399.894C133.924 398.992 133.77 398.093 133.61 397.193C133.278 395.322 132.992 393.448 132.74 391.565L132.661 390.982C132.342 388.601 132.04 386.22 131.832 383.825C131.797 383.421 131.75 383.027 131.69 382.624C131.579 381.808 131.522 380.988 131.465 380.167L131.445 379.87L131.364 378.734L131.329 378.229C131.292 377.764 131.25 377.3 131.205 376.835C131.102 375.717 131.05 374.598 130.999 373.477L130.983 373.135C130.621 365.284 130.537 357.486 130.858 349.631L130.874 349.249C130.983 346.562 131.107 343.885 131.411 341.212C131.48 340.582 131.525 339.949 131.571 339.316L131.597 338.958C131.877 335.343 132.311 331.752 132.825 328.163L133.034 326.679C133.284 324.885 133.564 323.099 133.873 321.315L133.979 320.701C134.57 317.273 134.764 316.15 134.993 315.035C135.104 314.492 135.224 313.951 135.402 313.146C135.508 312.66 135.611 312.173 135.713 311.686C136.376 308.538 137.066 305.395 137.949 302.3C138.199 301.419 138.421 300.534 138.638 299.645C139.007 298.142 139.441 296.663 139.897 295.184C140.023 294.773 140.146 294.36 140.269 293.948C141.522 289.759 142.851 285.586 144.395 281.495L144.627 280.871L146.477 275.948C146.988 274.597 147.542 273.27 148.117 271.945L149.109 269.618L149.36 269.027C149.781 268.04 150.221 267.074 150.707 266.118C150.803 265.887 150.894 265.655 150.981 265.42C151.39 264.375 151.878 263.364 152.365 262.353L152.6 261.865L153.257 260.483C153.951 259.015 154.65 257.555 155.426 256.129C155.814 255.417 156.177 254.695 156.535 253.968C157.035 252.953 157.581 251.976 158.151 250.998C158.513 250.365 158.834 249.715 159.155 249.061C159.586 248.184 160.045 247.349 160.581 246.532C161.181 245.561 161.745 244.574 162.288 243.569C162.631 242.935 162.982 242.306 163.333 241.676H163.657L163.768 241.262C163.979 240.71 164.222 240.346 164.571 239.881C164.856 239.479 165.088 239.053 165.322 238.621L165.384 238.507C165.622 238.073 165.866 237.643 166.115 237.215L166.355 236.799L166.57 236.497H166.894L166.953 236.208C167.058 235.841 167.189 235.602 167.403 235.289L167.614 234.977L167.835 234.655L168.05 234.338L168.473 233.717C168.793 233.254 168.953 233.023 169.1 232.783C169.247 232.544 169.38 232.297 169.646 231.802H169.97L170.101 231.448C170.293 230.994 170.5 230.591 170.779 230.184H171.103L171.143 229.921C171.309 229.395 171.583 229.004 171.912 228.565H172.236L172.269 228.308C172.438 227.796 172.743 227.397 173.063 226.978L173.156 226.855L173.641 226.205L173.904 225.856C174.349 225.262 174.789 224.665 175.229 224.067L175.352 223.901L175.645 223.505C176.242 222.696 176.823 221.88 177.378 221.041L177.577 220.796H177.901L177.901 220.31C178.085 220.119 178.271 219.93 178.464 219.748C178.873 219.337 179.22 218.872 179.567 218.407L179.763 218.145L180.035 217.787C180.453 217.237 180.864 216.683 181.262 216.118C181.618 215.624 182.003 215.237 182.433 214.806C182.972 214.159 183.506 213.505 183.99 212.814L184.214 212.54H184.538L184.644 212.283C184.926 211.777 185.29 211.359 185.668 210.926L185.752 210.831C186.071 210.461 186.231 210.277 186.383 210.086C186.535 209.895 186.678 209.698 186.966 209.303H187.289L187.422 209.014C187.612 208.658 187.81 208.399 188.078 208.099L188.378 207.764L189.241 206.826L189.504 206.542L190.027 205.982C190.391 205.591 190.715 205.216 191.012 204.771H191.336L191.66 204.123H191.983L192.105 203.85C192.484 203.148 193.011 202.551 193.602 202.019H193.926L194.044 201.742C194.292 201.296 194.589 200.991 194.95 200.629L195.389 200.188L195.863 199.715L196.349 199.228L197.368 198.211L200.16 195.417L201.22 194.36C201.394 194.209 201.472 194.141 201.561 194.112C201.633 194.088 201.713 194.088 201.857 194.088L201.857 193.764C202.123 193.543 202.394 193.328 202.667 193.116C203.063 192.729 203.449 192.335 203.83 191.933C203.991 191.783 204.063 191.716 204.149 191.685C204.22 191.66 204.301 191.66 204.447 191.66L204.609 191.174H204.933L205.095 190.688C205.369 190.442 205.654 190.208 205.945 189.98C206.432 189.597 206.884 189.223 207.318 188.78C207.538 188.566 207.626 188.48 207.731 188.445C207.801 188.422 207.879 188.422 208.008 188.422L208.008 188.099C208.503 187.656 208.659 187.516 208.84 187.472C208.923 187.451 209.012 187.451 209.141 187.451L209.303 186.965H209.627L209.627 186.642C209.777 186.504 209.862 186.426 209.947 186.353C210.053 186.262 210.162 186.176 210.406 185.984L210.844 185.634C211.041 185.493 211.142 185.421 211.25 185.365C211.363 185.308 211.484 185.267 211.731 185.185L211.731 184.861C212.084 184.556 212.214 184.443 212.365 184.4C212.454 184.376 212.55 184.376 212.702 184.376L212.864 183.89C213.037 183.752 213.13 183.677 213.226 183.605C213.34 183.52 213.457 183.439 213.714 183.263C214.363 182.815 214.899 182.344 215.454 181.786C215.806 181.488 216.17 181.206 216.537 180.926L216.822 180.703C217.303 180.333 217.452 180.218 217.618 180.183C217.692 180.167 217.77 180.167 217.882 180.167L218.044 179.681C218.406 179.383 218.767 179.106 219.147 178.832L219.849 178.316L220.23 178.037C220.661 177.719 221.088 177.396 221.515 177.071L221.958 176.735L222.823 176.076L223.223 175.774L223.578 175.503C223.73 175.404 223.803 175.356 223.884 175.333C223.958 175.311 224.039 175.311 224.195 175.311L224.195 174.987H224.681L224.681 174.664C224.955 174.449 225.241 174.25 225.53 174.057L226.115 173.661L226.441 173.441C226.914 173.119 227.382 172.789 227.85 172.46L227.91 172.418C230.682 170.467 233.475 168.553 236.343 166.745C236.819 166.444 237.057 166.294 237.291 166.138C237.525 165.982 237.756 165.821 238.217 165.498C238.732 165.122 239.276 164.82 239.836 164.515C240.867 163.948 241.866 163.323 242.864 162.699L243.397 162.366C243.931 162.045 244.472 161.742 245.017 161.441C245.672 161.077 246.319 160.698 246.966 160.32L247.296 160.127C248.866 159.214 250.465 158.362 252.077 157.526C253.142 156.972 254.206 156.416 255.263 155.847C258.332 154.202 261.482 152.694 264.669 151.297C265.424 150.966 266.16 150.61 266.893 150.234C267.387 149.994 267.895 149.797 268.407 149.598L268.459 149.577C268.876 149.41 269.282 149.227 269.69 149.038C271.799 148.069 273.969 147.232 276.144 146.424L277.147 146.051C277.79 145.809 278.426 145.555 279.058 145.285C280.149 144.824 281.265 144.437 282.384 144.05L285.159 143.082C286.094 142.757 287.031 142.44 287.97 142.128C288.445 141.97 288.919 141.81 289.393 141.649C291.082 141.076 292.769 140.533 294.491 140.07C295.445 139.813 296.393 139.534 297.34 139.254L297.75 139.134C299.893 138.504 302.052 137.953 304.22 137.417L305.429 137.117C308.395 136.38 311.363 135.7 314.36 135.102L315.598 134.85C316.484 134.668 317.367 134.505 318.261 134.37C319.131 134.238 319.993 134.082 320.857 133.914C323.105 133.476 325.354 133.161 327.627 132.885C328.504 132.777 329.372 132.642 330.242 132.492C331 132.368 331.761 132.28 332.524 132.194L333.064 132.133L335.61 131.854C343.388 130.997 351.137 130.716 358.957 130.735ZM371.653 247.94C372.129 248.016 372.607 248.07 373.087 248.124L373.264 248.144C374.707 248.318 376.128 248.6 377.553 248.883C377.972 248.964 378.392 249.038 378.812 249.111C379.922 249.312 381.017 249.57 382.114 249.828L382.462 249.91C383.994 250.27 385.519 250.641 387.032 251.068L387.778 251.271C391.6 252.326 395.333 253.636 399.011 255.114L399.518 255.318C404.078 257.161 408.468 259.37 412.769 261.751C412.769 262.473 412.62 262.625 412.155 263.1L412.108 263.148L411.81 263.442L411.497 263.759C411.149 264.11 410.799 264.458 410.449 264.807L409.702 265.559C409.024 266.241 408.344 266.921 407.664 267.601L405.965 269.303C404.554 270.718 403.141 272.131 401.726 273.543C400.497 274.77 399.271 276 398.046 277.231C396.789 278.495 395.53 279.756 394.269 281.016C393.561 281.724 392.854 282.432 392.148 283.142C391.485 283.809 390.819 284.474 390.152 285.138L389.419 285.873C389.087 286.208 388.753 286.539 388.418 286.87L388.125 287.17C387.853 287.436 387.852 287.436 387.356 287.811C387.113 287.804 387.001 287.8 386.894 287.775C386.801 287.754 386.712 287.718 386.547 287.65L386.235 287.528L385.929 287.383C381.973 285.573 377.762 284.289 373.548 283.23C373.266 283.157 372.984 283.08 372.704 282.997C371.423 282.621 370.126 282.41 368.809 282.207L367.664 282.025C366.837 281.893 366.009 281.775 365.18 281.66L364.701 281.593C361.646 281.171 358.636 281.104 355.559 281.123C355.081 281.125 354.602 281.124 354.124 281.123L354.102 281.123C350.482 281.119 346.896 281.223 343.328 281.893L342.725 282.002L341.565 282.215C341.154 282.291 340.743 282.364 340.331 282.434C335.713 283.246 331.158 284.548 326.839 286.372C326.379 286.564 325.916 286.746 325.453 286.927L325.26 287.002C322.6 288.073 320.091 289.319 317.592 290.725L317.141 290.976C315.295 292.005 313.497 293.074 311.764 294.286L311.486 294.479C308.664 296.443 305.971 298.562 303.43 300.88C303.206 301.082 302.981 301.283 302.751 301.479C301.851 302.251 301.008 303.075 300.172 303.915L299.47 304.616C298.624 305.462 297.81 306.324 297.035 307.235L296.567 307.766C295.441 309.055 294.397 310.391 293.386 311.771C293.157 312.081 292.926 312.39 292.694 312.698C291.587 314.178 290.576 315.709 289.589 317.271L289.151 317.958L288.729 318.627L288.54 318.923C286.358 322.407 284.606 326.235 283.114 330.058L282.954 330.467C281.267 334.826 279.827 339.434 279.131 344.065C279.055 344.544 278.968 345.02 278.881 345.497L278.871 345.55C277.286 354.363 277.584 363.5 279.067 372.306L279.16 372.861C279.242 373.348 279.326 373.833 279.411 374.319L279.483 374.73C279.628 375.522 279.828 376.281 280.067 377.049C280.213 377.526 280.347 378.006 280.48 378.487C281.207 381.104 282.026 383.672 282.952 386.226L283.076 386.573C283.873 388.781 284.933 390.883 285.998 392.972L286.402 393.771C288.537 397.997 291.079 401.897 293.959 405.65L294.186 405.947C296.91 409.492 299.932 413.013 303.355 415.901C303.818 416.298 304.264 416.713 304.71 417.128C304.795 417.207 304.88 417.286 304.965 417.365C305.472 417.808 305.995 418.22 306.529 418.631C306.889 418.908 307.246 419.19 307.602 419.473C308.999 420.576 310.408 421.628 311.907 422.588C312.281 422.828 312.653 423.073 313.025 423.317L313.056 423.337C316.546 425.613 320.242 427.62 324.066 429.283L324.396 429.427C326.086 430.16 327.784 430.836 329.529 431.425L330.006 431.589L330.684 431.826C332.668 432.515 334.67 433.056 336.713 433.541C337.2 433.658 337.684 433.781 338.169 433.904C348.062 436.381 358.726 436.367 368.741 434.624L369.479 434.503C370.726 434.293 371.936 433.987 373.149 433.637C373.84 433.438 374.529 433.26 375.231 433.108C379.007 432.284 382.673 430.796 386.223 429.283L386.602 429.122C388.817 428.173 390.922 427.064 393.021 425.883L393.641 425.54C398.24 422.965 402.615 419.839 406.488 416.261C406.726 416.044 406.964 415.828 407.209 415.62C408.213 414.764 409.14 413.836 410.07 412.902L410.913 412.061C411.836 411.138 412.737 410.21 413.578 409.211L414.004 408.721C416.945 405.287 419.499 401.587 421.833 397.719L422.088 397.302C422.57 396.509 423.018 395.712 423.422 394.876C423.824 394.054 424.24 393.242 424.677 392.438C425.218 391.438 425.701 390.466 426.061 389.384C426.21 388.961 426.387 388.564 426.578 388.158C427.164 386.892 427.661 385.591 428.146 384.284L428.268 383.956C428.912 382.199 429.395 380.395 429.876 378.588L429.97 378.235C430.353 376.8 430.689 375.366 430.962 373.906C431.017 373.641 431.042 373.526 431.081 373.417C431.112 373.334 431.152 373.255 431.222 373.115C431.275 372.768 431.321 372.421 431.363 372.073C431.466 371.259 431.582 370.451 431.721 369.642C432.023 367.851 432.175 366.064 432.294 364.253L432.353 363.397L432.678 358.547C429.525 360.029 426.411 361.588 423.297 363.148L397.75 375.932C396.965 376.325 396.174 376.702 395.378 377.071C394.262 377.594 393.168 378.149 392.082 378.731C390.265 379.704 388.413 380.599 386.547 381.474C385.644 381.901 384.762 382.357 383.886 382.835C383.026 383.3 382.146 383.712 381.259 384.122C380.499 384.476 379.756 384.854 379.02 385.255C378.056 385.78 377.075 386.252 376.079 386.712C375.319 387.066 374.577 387.444 373.84 387.845C372.99 388.308 372.129 388.734 371.25 389.14C370.378 389.543 369.524 389.965 368.68 390.425C367.774 390.918 366.853 391.372 365.919 391.811C364.195 392.619 362.488 393.452 360.81 394.352C359.464 395.075 358.099 395.747 356.718 396.398C355.852 396.807 354.991 397.226 354.135 397.655L353.795 397.825C352.584 398.431 351.375 399.041 350.166 399.65C347.165 401.162 344.161 402.671 341.157 404.179C339.424 405.049 337.691 405.92 335.96 406.793C334.442 407.558 332.924 408.322 331.405 409.083C330.602 409.485 329.801 409.888 329 410.293C328.249 410.673 327.496 411.05 326.743 411.426L325.916 411.844C325.54 412.035 325.163 412.222 324.786 412.409L324.456 412.58C323.772 412.913 323.342 412.981 322.609 412.772C322.429 412.696 322.339 412.658 322.252 412.616C322.165 412.574 322.081 412.528 321.914 412.435L321.529 412.224L321.122 411.993L320.692 411.753C316.112 409.163 311.865 406.057 307.997 402.491C307.766 402.281 307.534 402.071 307.295 401.868C306.286 401.01 305.354 400.074 304.42 399.137L304.289 399.005L303.376 398.093C302.415 397.133 301.469 396.171 300.595 395.129L300.134 394.598C295.806 389.586 295.316 389.019 295.261 388.412C295.254 388.335 295.254 388.257 295.254 388.169L341.099 365.244C341.859 364.863 342.627 364.499 343.399 364.141C344.515 363.618 345.609 363.063 346.695 362.481C348.512 361.508 350.364 360.613 352.231 359.738C353.134 359.311 354.015 358.855 354.892 358.377C355.751 357.912 356.631 357.5 357.518 357.09C358.279 356.736 359.021 356.358 359.758 355.957C360.721 355.432 361.702 354.96 362.698 354.5C363.458 354.146 364.201 353.768 364.937 353.367C365.781 352.908 366.635 352.485 367.507 352.082C368.447 351.648 369.367 351.188 370.279 350.696C371.303 350.145 372.341 349.638 373.397 349.15C374.255 348.752 375.087 348.316 375.918 347.864C376.783 347.396 377.668 346.981 378.561 346.569C379.321 346.215 380.064 345.837 380.8 345.436C381.764 344.911 382.745 344.439 383.74 343.979C384.501 343.625 385.243 343.247 385.98 342.846C386.943 342.321 387.924 341.849 388.92 341.389C389.681 341.035 390.423 340.657 391.16 340.256C392.01 339.793 392.871 339.367 393.75 338.961C394.608 338.564 395.449 338.15 396.279 337.697C397.307 337.136 398.356 336.629 399.415 336.128C400.453 335.637 401.482 335.14 402.49 334.591C403.64 333.965 404.816 333.402 406 332.844C406.851 332.441 407.698 332.03 408.539 331.608L451.627 310.061C452.555 309.596 453.494 309.155 454.435 308.718C455.017 308.445 455.584 308.166 456.138 307.84C456.451 307.663 456.567 307.597 456.691 307.573C456.763 307.559 456.839 307.559 456.959 307.559L458.356 310.33C459.188 311.974 459.959 313.634 460.681 315.329L460.881 315.789C461.464 317.137 462.04 318.479 462.465 319.887C462.595 320.263 462.74 320.604 462.908 320.963C463.374 321.997 463.73 323.072 464.087 324.147L464.192 324.464L464.32 324.848C465.617 328.755 466.655 332.714 467.402 336.764C467.556 337.589 467.723 338.412 467.894 339.234C468.477 342.027 468.888 344.825 469.187 347.661C469.233 348.102 469.283 348.543 469.335 348.984C469.78 352.803 469.789 356.62 469.786 360.459L469.786 360.859C469.786 361.628 469.784 362.397 469.78 363.167L469.778 363.88C469.774 365.027 469.756 366.151 469.584 367.288C469.569 367.511 469.556 367.734 469.55 367.957L469.523 368.694C469.4 371.499 469.184 374.35 468.571 377.094C468.433 377.728 468.33 378.363 468.228 379.003C467.272 384.86 465.714 390.558 463.883 396.196L463.545 397.245C463.069 398.709 462.524 400.141 461.956 401.571L461.549 402.606C461.14 403.647 460.71 404.657 460.196 405.65C460.139 405.78 460.083 405.91 460.027 406.04C459.965 406.183 459.904 406.326 459.844 406.469C458.323 410.036 456.483 413.472 454.53 416.819L454.17 417.445C453.283 418.978 452.345 420.467 451.357 421.936L450.68 422.949C448.905 425.604 447.039 428.176 445.004 430.639C444.667 431.05 444.338 431.465 444.009 431.883C443.456 432.576 442.871 433.232 442.273 433.886C441.902 434.304 441.554 434.733 441.207 435.17C440.582 435.943 439.909 436.639 439.201 437.333C438.771 437.755 438.357 438.18 437.969 438.64C436.771 440.045 435.418 441.378 434.007 442.568C433.589 442.932 433.188 443.31 432.786 443.69C431.843 444.58 430.893 445.44 429.879 446.249C429.49 446.563 429.111 446.886 428.733 447.213C427.37 448.39 425.929 449.459 424.481 450.528C424.258 450.693 424.035 450.86 423.813 451.026C423.705 451.108 423.597 451.189 423.488 451.271C420.834 453.262 418.039 455.088 415.197 456.8L414.785 457.048C407.602 461.37 399.9 464.912 391.92 467.478C391.429 467.636 390.939 467.797 390.449 467.959C388.519 468.591 386.579 469.119 384.604 469.587L383.521 469.85L383.115 469.948C382.727 470.055 382.357 470.18 381.978 470.314C381.199 470.578 380.43 470.698 379.616 470.801C378.744 470.913 377.904 471.053 377.054 471.281C375.882 471.585 374.697 471.725 373.498 471.867L373.445 471.874L372.435 471.997L371.529 472.107C371.214 472.149 370.899 472.199 370.588 472.262C370.163 472.346 369.75 472.384 369.317 472.414L368.796 472.453L368.255 472.491L366.629 472.609C366.179 472.647 365.733 472.691 365.284 472.744C362.79 473.029 360.301 473.042 357.795 473.038C357.306 473.037 356.817 473.038 356.329 473.041C352.968 473.061 349.662 472.903 346.318 472.559C345.676 472.493 345.033 472.432 344.39 472.373C344.039 472.34 343.688 472.304 343.336 472.267C343.064 472.237 342.791 472.207 342.518 472.177L342.118 472.135C338.222 471.711 334.368 470.896 330.55 470.022L330.031 469.904C329.235 469.716 328.982 469.657 328.738 469.572C328.625 469.533 328.513 469.488 328.349 469.423C327.98 469.275 327.638 469.181 327.249 469.102C323.474 468.299 319.742 466.97 316.18 465.499C315.55 465.239 314.915 465.007 314.273 464.782C312.85 464.283 311.479 463.713 310.139 463.023C309.628 462.774 309.111 462.546 308.59 462.32C307.533 461.86 306.524 461.395 305.55 460.775C305.006 460.45 304.442 460.174 303.873 459.895L303.853 459.885C302.912 459.424 302.001 458.934 301.103 458.392C300.661 458.133 300.215 457.889 299.764 457.647C298.804 457.125 297.877 456.561 296.953 455.98L296.442 455.66C293.061 453.526 289.79 451.213 286.675 448.707L286.352 448.448C285.154 447.489 283.973 446.522 282.843 445.482C282.456 445.136 282.055 444.818 281.647 444.498C280.674 443.714 279.808 442.833 278.936 441.941C278.395 441.39 277.852 440.858 277.264 440.357C276.569 439.76 275.986 439.087 275.409 438.378C275.349 438.306 275.303 438.25 275.261 438.203C275.229 438.166 275.2 438.134 275.17 438.103C275.072 438.003 274.962 437.914 274.697 437.7C273.88 437.725 273.203 438.075 272.498 438.44L272.305 438.54L271.892 438.748L270.589 439.409L268.05 440.694C266.42 441.52 264.791 442.344 263.133 443.112C261.775 443.748 260.451 444.44 259.129 445.15C258.713 445.372 258.293 445.589 257.872 445.803L257.504 445.991C257.361 446.053 257.289 446.084 257.214 446.1C257.136 446.117 257.055 446.117 256.891 446.117L250.715 433.764L250.108 432.556C249.519 431.388 248.948 430.214 248.393 429.03C247.907 427.993 247.395 426.979 246.847 425.974C246.382 425.115 245.97 424.234 245.56 423.347C245.162 422.493 244.729 421.663 244.278 420.836C243.762 419.881 243.301 418.902 242.847 417.917C242.487 417.143 242.096 416.398 241.666 415.66C241.589 415.509 241.551 415.434 241.532 415.355C241.514 415.278 241.514 415.198 241.514 415.038C243.058 414.202 244.614 413.405 246.204 412.66C248.066 411.787 249.892 410.855 251.705 409.885C252.607 409.406 253.524 408.967 254.463 408.564C254.367 407.998 254.22 407.523 253.977 407.004L253.777 406.573L253.563 406.115C252.394 403.577 251.316 401.034 250.425 398.384L249.941 396.961C248.769 393.525 247.655 390.081 246.901 386.525C246.744 385.784 246.551 385.066 246.321 384.345C246.008 383.278 245.829 382.165 245.651 381.061C245.621 380.872 245.591 380.684 245.56 380.496C245.539 380.372 245.519 380.248 245.498 380.125C245.358 379.308 245.215 378.493 245.063 377.679C244.661 375.514 244.418 373.368 244.266 371.173L244.224 370.578C244.167 369.752 244.109 368.926 244.055 368.1L244.017 367.532L243.985 367.034C243.951 366.593 243.907 366.156 243.859 365.717C243.768 364.826 243.751 363.941 243.747 363.046L243.744 362.524L243.74 360.843L243.739 360.26C243.74 354.975 244.065 349.705 244.752 344.465L244.812 343.99C245.009 342.466 245.233 340.967 245.604 339.474C245.736 338.904 245.831 338.334 245.925 337.757C246.806 332.565 248.273 327.387 250.093 322.451L250.265 321.979C251.11 319.657 252.027 317.37 252.993 315.096C253.144 314.739 253.293 314.382 253.441 314.025C254.041 312.591 254.726 311.207 255.435 309.825L255.683 309.338C257.762 305.262 259.985 301.31 262.557 297.523L262.789 297.18C265.721 292.844 268.877 288.676 272.402 284.8C272.642 284.536 272.88 284.271 273.118 284.004C273.842 283.189 274.587 282.406 275.369 281.646C275.516 281.502 275.597 281.423 275.669 281.336C275.756 281.23 275.829 281.112 275.992 280.851H276.316L276.424 280.577C276.691 280.115 277.026 279.82 277.42 279.474L277.499 279.404C278.241 278.743 278.949 278.06 279.644 277.351C280.398 276.585 281.181 275.892 282.024 275.224C282.504 274.832 282.956 274.415 283.407 273.992C284.347 273.117 285.34 272.327 286.358 271.546C286.697 271.284 287.034 271.019 287.37 270.753C289.909 268.753 292.548 266.916 295.254 265.15L295.614 264.915C300.954 261.447 306.891 257.925 312.91 255.778C313.355 255.61 313.78 255.423 314.21 255.221C315.154 254.788 316.113 254.413 317.086 254.052L317.603 253.859C318.62 253.483 319.635 253.132 320.675 252.829C321.207 252.67 321.73 252.492 322.256 252.312C325.505 251.218 328.819 250.374 332.16 249.611L332.663 249.496C335.494 248.857 338.353 248.407 341.224 247.992L341.74 247.918C342.687 247.783 343.635 247.667 344.586 247.564C344.943 247.525 345.299 247.483 345.654 247.439C354.087 246.42 363.281 246.506 371.653 247.94ZM218.529 389.785L218.657 390.056L218.667 390.078C219.183 391.168 219.443 391.717 219.707 392.264C219.973 392.814 220.244 393.363 220.785 394.459C222.049 396.967 223.257 399.502 224.356 402.087L223.845 402.324C222.68 402.869 221.518 403.419 220.37 403.999C219.192 404.593 218.004 405.163 216.813 405.731C215.528 406.343 214.246 406.961 212.965 407.58C211.338 408.366 209.711 409.15 208.081 409.93C207.184 410.361 206.287 410.793 205.392 411.228C203.371 412.208 201.344 413.174 199.298 414.103C198.295 414.56 197.304 415.035 196.321 415.535C195.502 415.95 194.675 416.345 193.844 416.736C192.908 417.176 191.976 417.624 191.052 418.091C189.881 418.682 188.699 419.249 187.515 419.813C186.23 420.426 184.948 421.043 183.667 421.662C182.04 422.448 180.413 423.232 178.784 424.013C177.483 424.637 176.184 425.264 174.886 425.891C173.342 426.637 171.797 427.379 170.25 428.118C168.901 428.762 167.554 429.413 166.207 430.063C164.845 430.721 163.482 431.378 162.118 432.032C160.761 432.683 159.404 433.336 158.048 433.991L154.867 435.527C152.776 436.538 150.679 437.532 148.564 438.491C147.678 438.896 146.829 439.317 146.003 439.834C145.848 439.898 145.769 439.93 145.688 439.943C145.604 439.957 145.517 439.95 145.341 439.936C145.229 439.886 145.159 439.854 145.101 439.807C145.006 439.728 144.946 439.606 144.787 439.278C144.701 439.035 144.617 438.792 144.536 438.547L144.393 438.139L144.08 437.229C143.897 436.693 143.709 436.159 143.521 435.625C141.749 430.583 141.339 429.415 141.071 428.215C140.99 427.853 140.922 427.489 140.833 427.014C142.254 426.294 143.682 425.591 145.122 424.91C146.119 424.438 147.112 423.96 148.097 423.463C149.466 422.772 150.85 422.113 152.235 421.454L152.64 421.261L155.602 419.842C156.812 419.261 158.021 418.678 159.23 418.094L162.404 416.561C164.355 415.618 166.312 414.69 168.279 413.781C169.575 413.183 170.865 412.578 172.137 411.931C172.952 411.517 173.776 411.125 174.602 410.736C175.478 410.324 176.349 409.908 177.213 409.472C178.324 408.911 179.447 408.375 180.571 407.839C181.861 407.224 183.149 406.604 184.436 405.982C185.898 405.275 187.362 404.569 188.826 403.867C190.184 403.216 191.541 402.563 192.897 401.908L196.078 400.372C198.151 399.37 200.231 398.389 202.324 397.429C203.381 396.942 204.429 396.441 205.466 395.914C206.279 395.501 207.101 395.11 207.927 394.722C208.863 394.281 209.795 393.833 210.719 393.366C212.248 392.595 213.793 391.859 215.34 391.125L216.175 390.728L217.773 389.97C218.028 389.861 218.132 389.816 218.241 389.798C218.317 389.785 218.396 389.785 218.529 389.785ZM260.614 451.294C260.717 451.463 260.774 451.557 260.827 451.654C260.894 451.776 260.953 451.903 261.089 452.189L261.364 452.764L261.656 453.388L261.96 454.027C262.704 455.594 263.43 457.17 264.152 458.748C264.658 459.852 265.182 460.945 265.742 462.023C265.983 462.491 266.163 462.922 266.279 463.434L265.768 463.672L265.065 464.001L264.733 464.155C263.806 464.589 262.89 465.046 261.975 465.505C260.71 466.139 259.439 466.761 258.166 467.38L257.794 467.561C256.164 468.353 254.527 469.126 252.873 469.867C251.928 470.291 251 470.74 250.077 471.209C249.253 471.627 248.42 472.025 247.584 472.418C246.647 472.858 245.716 473.307 244.792 473.773C243.62 474.364 242.439 474.931 241.255 475.495C239.97 476.108 238.688 476.725 237.406 477.344C235.106 478.456 232.803 479.562 230.5 480.666C228.431 481.658 226.364 482.652 224.299 483.65C222.779 484.385 221.257 485.116 219.735 485.846C218.442 486.467 217.15 487.09 215.858 487.714C214.238 488.497 212.617 489.277 210.994 490.055C209.801 490.627 208.609 491.202 207.417 491.778L204.236 493.314C202.163 494.316 200.082 495.297 197.99 496.257C196.932 496.743 195.885 497.244 194.848 497.771C194.035 498.184 193.212 498.576 192.387 498.964C191.45 499.404 190.519 499.853 189.595 500.319C187.217 501.519 184.805 502.649 182.393 503.778L181.785 504.063C180.621 502.721 179.52 501.343 178.448 499.927C177.989 499.321 177.522 498.721 177.052 498.123C176.164 496.991 175.296 495.848 174.45 494.684L174.177 494.31L173.926 493.962L173.705 493.656C173.637 493.547 173.595 493.482 173.56 493.412C173.505 493.305 173.466 493.189 173.368 492.894C174.757 492.123 176.158 491.423 177.615 490.789C178.529 490.39 179.421 489.958 180.31 489.506C181.152 489.079 182.003 488.672 182.857 488.27C183.733 487.859 184.604 487.442 185.467 487.006C186.579 486.445 187.702 485.909 188.826 485.373C189.719 484.948 190.61 484.52 191.5 484.088C193.598 483.07 195.703 482.069 197.824 481.098C198.871 480.617 199.907 480.121 200.934 479.599C201.747 479.186 202.569 478.795 203.394 478.407C204.331 477.966 205.262 477.518 206.186 477.051C207.572 476.352 208.972 475.685 210.372 475.019L210.75 474.839L213.712 473.42C215.121 472.743 216.53 472.063 217.938 471.383C219.458 470.648 220.98 469.917 222.502 469.187C223.795 468.566 225.088 467.943 226.379 467.319C228.344 466.37 230.31 465.424 232.278 464.481L237.843 461.81C239.306 461.107 240.77 460.404 242.235 459.705C243.898 458.91 245.558 458.111 247.218 457.309C248.742 456.573 250.268 455.838 251.796 455.106C252.715 454.665 253.634 454.223 254.552 453.779L256.376 452.896L257.478 452.365C257.857 452.183 258.236 452 258.614 451.815L259.185 451.541L259.699 451.291C259.903 451.216 260.01 451.176 260.118 451.172C260.238 451.169 260.359 451.209 260.614 451.294ZM215.888 432.892L215.292 431.708C215.13 431.708 215.049 431.708 214.972 431.725C214.894 431.743 214.821 431.777 214.673 431.846C214.434 431.972 214.193 432.094 213.95 432.211L213.063 432.636C211.442 433.412 209.822 434.192 208.204 434.974C206.71 435.696 205.215 436.416 203.718 437.131C202.313 437.801 200.911 438.477 199.51 439.154C198.221 439.777 196.932 440.398 195.64 441.014C194.457 441.578 193.275 442.145 192.104 442.735C191.18 443.202 190.249 443.65 189.312 444.091C188.492 444.476 187.675 444.865 186.868 445.275C185.685 445.876 184.489 446.443 183.285 446.999C180.274 448.39 177.286 449.825 174.301 451.268C173.102 451.847 171.904 452.425 170.704 453C169.082 453.778 167.461 454.558 165.841 455.341C164.691 455.897 163.541 456.452 162.388 457.004C160.741 457.792 159.095 458.583 157.464 459.405C156.896 459.692 156.327 459.977 155.758 460.261L154.268 461.006L154.499 461.503C155.422 463.49 156.347 465.482 157.444 467.379C157.781 467.955 158.109 468.532 158.423 469.12L159.336 470.85L159.636 471.427L159.921 471.966C160.063 472.236 160.126 472.357 160.195 472.473C160.251 472.567 160.311 472.658 160.419 472.822C160.65 472.899 160.783 472.944 160.915 472.942C161.091 472.94 161.267 472.857 161.678 472.662L161.987 472.509C162.858 472.09 163.723 471.658 164.587 471.224C165.538 470.744 166.496 470.281 167.46 469.828C168.285 469.44 169.107 469.048 169.92 468.635C170.958 468.108 172.005 467.607 173.062 467.121C175.155 466.161 177.235 465.18 179.307 464.178L182.509 462.632C183.691 462.061 184.874 461.492 186.058 460.927C187.242 460.363 188.424 459.796 189.595 459.205C190.519 458.739 191.451 458.29 192.387 457.85C193.213 457.462 194.035 457.07 194.848 456.657C195.885 456.13 196.933 455.629 197.99 455.142C200.082 454.183 202.162 453.202 204.235 452.2L207.437 450.654C208.618 450.082 209.801 449.514 210.986 448.949C212.177 448.382 213.365 447.811 214.543 447.217C215.406 446.781 216.276 446.361 217.153 445.952C218.488 445.33 219.805 444.675 221.119 444.01C220.274 442.044 219.359 440.115 218.421 438.192L218.389 438.127C217.903 437.131 217.417 436.135 216.961 435.124C216.672 434.482 216.371 433.85 216.055 433.221L215.888 432.892Z" fill="white"/>
</g>
</g>
</g>
<defs>
<filter id="filter0_d_352_3162" x="-562.918" y="-369.835" width="1641.29" height="1459.67" filterUnits="userSpaceOnUse" color-interpolation-filters="sRGB">
<feFlood flood-opacity="0" result="BackgroundImageFix"/>
<feColorMatrix in="SourceAlpha" type="matrix" values="0 0 0 0 0 0 0 0 0 0 0 0 0 0 0 0 0 0 127 0" result="hardAlpha"/>
<feOffset/>
<feGaussianBlur stdDeviation="244.552"/>
<feComposite in2="hardAlpha" operator="out"/>
<feColorMatrix type="matrix" values="0 0 0 0 0.0392157 0 0 0 0 0.0784314 0 0 0 0 0.117647 0 0 0 1 0"/>
<feBlend mode="normal" in2="BackgroundImageFix" result="effect1_dropShadow_352_3162"/>
<feBlend mode="normal" in="SourceGraphic" in2="effect1_dropShadow_352_3162" result="shape"/>
</filter>
<filter id="filter1_d_352_3162" x="-85.8135" y="130.732" width="687.081" height="482.535" filterUnits="userSpaceOnUse" color-interpolation-filters="sRGB">
<feFlood flood-opacity="0" result="BackgroundImageFix"/>
<feColorMatrix in="SourceAlpha" type="matrix" values="0 0 0 0 0 0 0 0 0 0 0 0 0 0 0 0 0 0 127 0" result="hardAlpha"/>
<feOffset dy="12"/>
<feGaussianBlur stdDeviation="6"/>
<feComposite in2="hardAlpha" operator="out"/>
<feColorMatrix type="matrix" values="0 0 0 0 0 0 0 0 0 0 0 0 0 0 0 0 0 0 0.43 0"/>
<feBlend mode="normal" in2="BackgroundImageFix" result="effect1_dropShadow_352_3162"/>
<feBlend mode="normal" in="SourceGraphic" in2="effect1_dropShadow_352_3162" result="shape"/>
</filter>
<linearGradient id="paint0_linear_352_3162" x1="359.955" y1="5.59231e-05" x2="370.874" y2="719.836" gradientUnits="userSpaceOnUse">
<stop stop-color="#0D965E"/>
<stop offset="0.9" stop-color="#00683F"/>
</linearGradient>
<clipPath id="clip0_352_3162">
<rect width="720" height="720" rx="178" fill="white"/>
</clipPath>
</defs>
</svg>
